<?xml version="1.0" standalone="no"?>
<!DOCTYPE svg PUBLIC "-//W3C//DTD SVG 20010904//EN"
 "http://www.w3.org/TR/2001/REC-SVG-20010904/DTD/svg10.dtd">
<svg version="1.0" xmlns="http://www.w3.org/2000/svg"
 width="400.000000pt" height="400.000000pt" viewBox="0 0 400.000000 400.000000"
 preserveAspectRatio="xMidYMid meet">

<g transform="translate(0.000000,400.000000) scale(0.100000,-0.100000)"
fill="#000000" stroke="none">
<path d="M1850 3993 c-268 -27 -456 -76 -683 -178 -383 -173 -728 -498 -931
-877 -240 -449 -297 -975 -160 -1475 38 -139 129 -355 198 -472 67 -113 149
-220 171 -226 11 -3 290 -48 620 -100 497 -78 621 -101 720 -132 l120 -38
-605 -5 -605 -5 85 -66 c331 -258 714 -396 1150 -415 129 -6 314 6 405 26 22
5 69 14 105 21 157 29 412 130 580 230 77 47 264 182 275 199 4 7 -126 10
-374 10 -346 0 -416 5 -365 24 9 3 190 6 404 6 l388 0 96 102 c53 56 95 102
94 104 -2 1 -140 -19 -308 -46 -168 -27 -307 -46 -309 -44 -10 10 28 36 55 38
76 7 145 19 149 27 3 4 11 6 18 3 11 -4 359 47 412 61 22 6 92 95 153 195 428
706 378 1611 -126 2260 -36 47 -116 135 -177 195 -332 332 -736 523 -1217 575
-91 9 -259 11 -338 3z m615 -460 c118 -169 281 -403 348 -500 27 -40 53 -73
59 -73 5 0 6 -4 3 -10 -3 -5 0 -10 7 -10 17 0 198 183 198 200 0 7 3 11 6 7 4
-3 13 1 22 9 10 11 18 12 26 4 7 -7 -24 -45 -112 -133 l-122 -122 37 -52 c20
-29 33 -56 29 -60 -4 -4 -10 -2 -14 4 -4 7 -19 17 -32 23 -41 18 -85 43 -90
50 -3 4 -16 11 -30 15 -14 4 -2 -9 30 -30 70 -47 69 -46 33 -39 -41 8 -170
-34 -181 -58 -2 -5 -13 -8 -24 -8 -11 0 -32 -6 -46 -14 -54 -28 -119 -56 -130
-56 -6 0 -23 -7 -39 -15 -54 -27 -160 -75 -167 -75 -10 0 -72 -26 -118 -51
-20 -10 -42 -19 -48 -19 -12 0 -48 -14 -126 -51 -23 -10 -49 -19 -58 -19 -9 0
-16 -4 -16 -9 0 -5 -15 -13 -32 -16 -18 -4 -38 -12 -45 -17 -7 -6 -29 -16 -50
-22 -62 -21 -103 -40 -103 -48 0 -4 -8 -8 -17 -8 -10 0 -30 -6 -44 -14 -53
-28 -74 -27 -92 2 -10 16 -17 21 -17 12 0 -9 7 -26 16 -38 9 -13 13 -26 10
-29 -3 -4 -8 -4 -10 -2 -2 3 -62 123 -104 210 -2 4 15 20 36 35 21 16 59 46
83 66 24 20 92 74 150 120 228 178 425 333 441 348 9 8 55 44 101 80 l85 65 6
75 c4 41 11 127 17 190 14 164 20 220 24 220 2 0 47 -62 100 -137z m-18 85
c-3 -8 -6 -5 -6 6 -1 11 2 17 5 13 3 -3 4 -12 1 -19z m-1610 -464 c2 -5 -91
-103 -207 -219 -167 -167 -212 -207 -222 -197 -10 10 30 55 197 222 116 116
214 209 219 207 6 -2 11 -7 13 -13z m460 0 c2 -5 -91 -103 -207 -219 -167
-167 -212 -207 -222 -197 -10 10 30 55 197 222 116 116 214 209 219 207 6 -2
11 -7 13 -13z m2098 -214 c-115 -116 -213 -210 -217 -210 -28 0 16 51 199 233
137 136 211 203 218 196 6 -6 -63 -81 -200 -219z m-438 -197 c-3 -10 -5 -4 -5
12 0 17 2 24 5 18 2 -7 2 -21 0 -30z m-10 -85 c-2 -13 -4 -5 -4 17 -1 22 1 32
4 23 2 -10 2 -28 0 -40z m-2107 -38 c0 -5 -2 -10 -4 -10 -3 0 -8 5 -11 10 -3
6 -1 10 4 10 6 0 11 -4 11 -10z m2077 -127 c-3 -10 -5 -4 -5 12 0 17 2 24 5
18 2 -7 2 -21 0 -30z m-2083 8 c3 -4 -3 -16 -14 -26 -11 -10 -17 -22 -13 -28
3 -5 2 -7 -4 -4 -5 3 -92 -77 -194 -179 -163 -163 -209 -202 -209 -177 0 10
412 423 422 423 4 0 9 -4 12 -9z m2301 -2 c6 -9 -246 -269 -260 -269 -3 0 -5
7 -5 17 0 16 236 263 251 263 5 0 11 -5 14 -11z m465 -2 c0 -7 -92 -104 -204
-216 -161 -160 -208 -202 -222 -197 -15 6 20 46 191 216 116 115 216 210 223
210 6 0 12 -6 12 -13z m-2047 -267 c3 -11 1 -18 -4 -14 -5 3 -9 12 -9 20 0 20
7 17 13 -6z m1712 -230 c3 -5 -1 -10 -9 -10 -9 0 -16 5 -16 10 0 6 4 10 9 10
6 0 13 -4 16 -10z m-249 -125 c-3 -9 -42 -65 -87 -125 -54 -73 -87 -110 -100
-110 -15 0 1 27 73 125 51 69 98 125 106 125 9 0 12 -6 8 -15z m-2000 -367
c116 -117 214 -224 217 -237 5 -20 -1 -17 -41 22 -26 25 -129 127 -230 227
-160 157 -195 200 -163 200 4 0 102 -96 217 -212z m2061 44 c-110 -110 -147
-142 -147 -126 0 31 268 300 283 285 9 -9 -25 -48 -136 -159z m-2068 -310
c291 -212 370 -276 357 -290 -7 -6 -756 536 -756 548 0 18 15 17 45 -3 19 -12
178 -127 354 -255z m2379 261 c-2 -9 -73 -68 -158 -130 -216 -159 -226 -165
-250 -161 -17 2 17 31 146 125 93 67 187 135 209 152 46 34 58 37 53 14z m-20
-228 c-3 -3 -9 2 -12 12 -6 14 -5 15 5 6 7 -7 10 -15 7 -18z m-2664 -96 c671
-338 761 -387 742 -406 -3 -3 -110 49 -238 115 -128 65 -347 177 -485 247
-139 71 -253 135 -253 142 0 7 3 13 7 13 3 0 106 -50 227 -111z m2828 96 c1
-6 -40 -32 -91 -58 -67 -35 -96 -46 -104 -38 -14 14 -18 11 88 64 89 46 106
50 107 32z m-795 -62 c-3 -3 -11 -2 -17 2 -8 5 -7 11 2 22 12 15 13 14 16 -1
2 -10 1 -20 -1 -23z m-2018 -279 c525 -170 684 -222 724 -234 20 -6 42 -20 47
-31 6 -10 9 -19 7 -19 -3 0 -65 20 -138 44 -74 24 -282 92 -464 150 -506 163
-525 170 -525 183 0 7 5 13 11 13 7 0 158 -48 338 -106z m2912 91 c1 -5 -147
-58 -328 -117 -390 -127 -373 -123 -373 -104 0 10 93 45 313 116 171 56 323
105 337 110 30 10 51 9 51 -5z m-921 -29 c-19 -13 -37 -20 -38 -15 -7 17 20
39 46 39 26 0 26 0 -8 -24z m287 -6 c-65 -35 -67 -35 -67 -15 0 20 48 44 89
45 33 0 33 0 -22 -30z m-257 -115 c0 -8 -18 -24 -40 -35 -47 -24 -50 -24 -50
-5 0 8 17 23 38 34 45 24 52 25 52 6z m0 -134 c0 -13 -12 -22 -42 -30 -24 -7
-49 -15 -55 -17 -8 -3 -13 2 -13 11 0 9 9 19 20 22 11 3 17 9 14 14 -3 5 1 6
9 4 7 -3 24 -1 38 4 13 5 25 10 27 10 1 1 2 -7 2 -18z m29 -115 c13 -16 13
-15 -108 -36 -65 -12 -83 -8 -63 12 9 9 40 17 153 37 4 0 12 -5 18 -13z"/>
<path d="M507 674 c28 -33 74 -81 102 -107 l50 -47 548 1 c301 1 541 3 533 5
-8 2 -287 47 -620 99 -333 52 -618 98 -635 101 -29 6 -28 6 22 -52z"/>
</g>
</svg>
